<?xml version="1.0" encoding="UTF-8"?>
<svg xmlns="http://www.w3.org/2000/svg" xmlns:xlink="http://www.w3.org/1999/xlink" width="30px" height="24px" viewBox="0 0 30 24" version="1.1">
<g id="surface1">
<path style=" stroke:none;fill-rule:nonzero;fill:rgb(100%,100%,100%);fill-opacity:1;" d="M 15.238281 16.476562 L 10.585938 12.824219 C 10.972656 14.914062 12.800781 16.5 15 16.5 C 15.085938 16.5 15.160156 16.480469 15.238281 16.476562 Z M 15 18.75 C 11.273438 18.75 8.25 15.726562 8.25 12.042969 C 8.25 11.722656 8.300781 11.417969 8.300781 11.113281 L 3.808594 7.519531 C 2.976562 8.632812 2.25 9.863281 1.664062 11.203125 C 1.574219 11.410156 1.457031 11.765625 1.457031 12 C 1.457031 12.234375 1.53125 12.589844 1.621094 12.796875 C 4.164062 18.582031 9.195312 22.460938 14.957031 22.460938 C 17.085938 22.460938 19.117188 21.921875 20.960938 20.953125 L 17.46875 18.214844 C 16.691406 18.566406 15.847656 18.75 15 18.75 Z M 29.570312 21.988281 L 24.71875 18.1875 C 26.1875 16.6875 27.425781 14.871094 28.335938 12.839844 C 28.425781 12.632812 28.5 12.273438 28.5 12.039062 C 28.5 11.808594 28.425781 11.449219 28.335938 11.242188 C 25.792969 5.457031 20.761719 1.582031 15 1.582031 C 12.0625 1.582031 9.320312 2.609375 6.996094 4.375 L 1.820312 0.238281 C 1.613281 0.078125 1.367188 0 1.125 0 C 0.792969 0 0.460938 0.148438 0.238281 0.429688 C -0.144531 0.921875 -0.0585938 1.628906 0.429688 2.011719 L 28.136719 23.71875 C 28.628906 24.101562 29.335938 24.015625 29.71875 23.527344 C 30.144531 23.082031 30.054688 22.375 29.570312 21.988281 Z M 21.707031 12 C 21.707031 13.164062 21.394531 14.25 20.867188 15.199219 L 19.058594 13.78125 C 19.304688 13.234375 19.457031 12.636719 19.457031 12 C 19.457031 9.554688 17.441406 7.5 15 7.5 C 14.890625 7.5 14.738281 7.519531 14.601562 7.535156 C 14.851562 7.96875 14.957031 8.464844 14.957031 9 C 14.957031 9.476562 14.835938 9.921875 14.636719 10.320312 L 10.480469 7.027344 C 11.675781 5.929688 13.253906 5.25 15 5.25 C 18.726562 5.25 21.707031 8.277344 21.707031 12 Z M 21.707031 12 "/>
</g>
</svg>
