<?xml version="1.0" encoding="UTF-8"?>
<svg xmlns="http://www.w3.org/2000/svg" xmlns:xlink="http://www.w3.org/1999/xlink" width="27px" height="24px" viewBox="0 0 27 24" version="1.1">
<g id="surface1">
<path style=" stroke:none;fill-rule:nonzero;fill:rgb(100%,100%,100%);fill-opacity:1;" d="M 13.5 6.75 C 13.003906 6.757812 12.511719 6.835938 12.035156 6.984375 C 12.253906 7.371094 12.371094 7.804688 12.375 8.25 C 12.375 9.699219 11.199219 10.875 9.75 10.875 C 9.304688 10.871094 8.871094 10.753906 8.484375 10.535156 C 7.859375 12.703125 8.691406 15.023438 10.546875 16.300781 C 12.40625 17.578125 14.871094 17.523438 16.671875 16.164062 C 18.46875 14.808594 19.199219 12.453125 18.476562 10.316406 C 17.757812 8.179688 15.753906 6.742188 13.5 6.75 Z M 26.835938 11.316406 C 24.292969 6.355469 19.261719 3 13.5 3 C 7.738281 3 2.703125 6.359375 0.164062 11.316406 C -0.0546875 11.746094 -0.0546875 12.253906 0.164062 12.683594 C 2.707031 17.644531 7.738281 21 13.5 21 C 19.261719 21 24.296875 17.640625 26.835938 12.683594 C 27.054688 12.253906 27.054688 11.746094 26.835938 11.316406 Z M 13.5 18.75 C 8.875 18.75 4.636719 16.171875 2.347656 12 C 4.636719 7.828125 8.875 5.25 13.5 5.25 C 18.125 5.25 22.363281 7.828125 24.652344 12 C 22.363281 16.171875 18.125 18.75 13.5 18.75 Z M 13.5 18.75 "/>
</g>
</svg>
